# xmcd
#
# Track frame offsets: 
#        150
#        11552
#        24920
#        36960
#        48037
#        60105
#        72980
#        83587
#        94929
#        106779
#        121245
#        136102
#        148790
#        161080
#        172345
#        184417
#        195045
#        208187
#        222122
#        232862
#        246062
#        257252
#        269770
#        279215
#        288460
#        307465
#        336750
#
# Disc length: 4747 seconds
#
# Revision: 1
# Processed by: cddbd v1.5.2PL0 Copyright (c) Steve Scherf et al.
# Submitted via: ExactAudioCopy v1.3
#
DISCID=7e12891b
DTITLE=T-Bone Walker - Akella Presents - Greatest Bluesmen - vol. 10  
DTITLE=CD1
DYEAR=2017
DGENRE=Blues
TTITLE0=Strollin' With Bone
TTITLE1=You Don't Love Me
TTITLE2=You Don't Understand
TTITLE3=Welcome Blues (Say Pretty Baby)
TTITLE4=Tell Me What's The Reason
TTITLE5=Blue Mood
TTITLE6=The Sun Went Down
TTITLE7=Travelin' Blues
TTITLE8=Evil Hearted Woman
TTITLE9=Cold, Cold Feeling
TTITLE10=I Got The Blues Again
TTITLE11=Blues Is A Woman
TTITLE12=Glamour Girl
TTITLE13=The Hustle Is On
TTITLE14=Alimony Blues
TTITLE15=News For My Baby
TTITLE16=Love Is Just A Gamble
TTITLE17=I'm Still In Love With You
TTITLE18=I'm About To Lose My Mind
TTITLE19=I Got The Blues
TTITLE20=Everytime
TTITLE21=Bye Bye Baby
TTITLE22=I'll Understand
TTITLE23=Teen Age Baby
TTITLE24=Woman
TTITLE25=Everyday I Have The Blues
TTITLE26=Why You Treat Me
EXTD=
EXTT0=
EXTT1=
EXTT2=
EXTT3=
EXTT4=
EXTT5=
EXTT6=
EXTT7=
EXTT8=
EXTT9=
EXTT10=
EXTT11=
EXTT12=
EXTT13=
EXTT14=
EXTT15=
EXTT16=
EXTT17=
EXTT18=
EXTT19=
EXTT20=
EXTT21=
EXTT22=
EXTT23=
EXTT24=
EXTT25=
EXTT26=
PLAYORDER=
